<svg viewBox="0 0 120 168" fill="none" xmlns="http://www.w3.org/2000/svg">
  <path d="M 42 88 A 40 40 0 1 1 78 88" stroke="#2F7E8C" stroke-width="9" stroke-linecap="round"/>
  <path d="M41 34 q-5 8 0 15 q5 7 0 15" stroke="#8FBFC9" stroke-width="5" stroke-linecap="round"/>
  <path d="M79 34 q5 8 0 15 q-5 7 0 15" stroke="#8FBFC9" stroke-width="5" stroke-linecap="round"/>
  <g transform="rotate(18 60 49)">
    <ellipse cx="60" cy="49" rx="13.5" ry="19" fill="#6B4A2F"/>
    <path d="M60 31 q-9 9 0 18 q9 9 0 18" stroke="#F3E9DC" stroke-width="3" stroke-linecap="round" fill="none"/>
  </g>
  <rect x="36" y="86" width="48" height="9" rx="4" fill="#2F7E8C"/>
  <path d="M84 98 q12 2 0 16" stroke="#2F7E8C" stroke-width="5" stroke-linecap="round"/>
  <path d="M40 99 L80 99 L63 130 Q60 134 57 130 Z" fill="#2F7E8C"/>
  <path d="M47 106 h26 M52 114 h16" stroke="#F3E9DC" stroke-width="2.5" stroke-linecap="round"/>
  <path d="M60 138 q7 8 7 13 a7 7 0 1 1 -14 0 q0 -5 7 -13" fill="#6B4A2F"/>
</svg>
